/* XPM */
static xpm_row_t const game_over_ranking_bright_xpm[] = {
"187 45 66 1",
" 	c None",
".	c #FFB950",
"+	c #FFBD5B",
"@	c #FFC671",
"#	c #FFCB7C",
"$	c #FFC46B",
"%	c #FFBA52",
"&	c #FFBB55",
"*	c #FFBC58",
"=	c #FFC56E",
"-	c #FFD79C",
";	c #FFF2DE",
">	c #FFFFFF",
",	c #FFFDF9",
"'	c #FFEACB",
")	c #FFEBCD",
"!	c #FFCD83",
"~	c #FFD699",
"{	c #FFF1DB",
"]	c #FFFEFC",
"^	c #FFECD0",
"/	c #FFCF86",
"(	c #FFD391",
"_	c #FFEED6",
":	c #FFD28E",
"<	c #FFD18B",
"[	c #FFF5E6",
"}	c #FFD494",
"|	c #FFE3BA",
"1	c #FFE5BD",
"2	c #FFF3E1",
"3	c #FFFCF7",
"4	c #FFDBA4",
"5	c #FFD596",
"6	c #FFE9C8",
"7	c #FFE6C0",
"8	c #FFC060",
"9	c #FFE1B5",
"0	c #FFE8C5",
"a	c #FFF4E3",
"b	c #FFC268",
"c	c #FFDEAC",
"d	c #FFEDD3",
"e	c #FFE2B7",
"f	c #FFD89F",
"g	c #FFE7C2",
"h	c #FFBE5D",
"i	c #FFF8EE",
"j	c #FFF7EC",
"k	c #FFDCA7",
"l	c #FFC979",
"m	c #FFDFAF",
"n	c #FFF6E9",
"o	c #FFE0B2",
"p	c #FFC876",
"q	c #FFD089",
"r	c #FFDAA1",
"s	c #FFC266",
"t	c #FFF9F1",
"u	c #FFDDAA",
"v	c #FFC773",
"w	c #FFC063",
"x	c #FFF0D8",
"y	c #FFCC80",
"z	c #FFFBF4",
"A	c #FFCB7E",
"...........................................................................................................................................................................................",
"...........................................................................................................................................................................................",
"...........................................................................................................................................................................................",
"...........................................................................................................................................................................................",
"...........................................................................................................................................................................................",
"...........................................................................................................................................................................................",
"...........................................................................................................................................................................................",
"...........................................................................................................................................................................................",
"..............+@######$%..........+@######$&..........+@######$&..........+@######$&..........*=######=*..........*=######=*..........*=######=*...........................................",
"...........&-;>>>>>>>>>,'#.....&-;>>>>>>>>>,)!.....%~{>>>>>>>>>]^/.....%({>>>>>>>>>])/.....%(_>>>>>>>>>]_/......(_>>>>>>>>>]_:......<_]>>>>>>>>>_(%........................................",
"..........$[>>_((((((}|>>>1%..$2>>34(((((56>>>7%..8;>>;9-(((((~)>>0*..8{>>>a(|>>>>>ab{'*..8_>>>(((((((((c>^*..8d>>;ef(((((5g>>^+..*^>>>3c((((((fa>_8.......................................",
".........hi>>>1........1>>>1.hj>>>>h.......g>>>7.+a>>>(........%d>>6.*a>>>>d.(>>>>28.k>).&;>>>>.........#>>d%%{>>>(.........7>>_%%d>>>>l........;>>;&......................................",
".........1>>>>1.mnnnne%@>>>>#e>>>>>_annnne.k>>>>!o>>>>(.6nnnnn9.f>>>/k>>>>>d.(>>>_*.->>>(k>>>>>nnnn.pnnni>>>(->>>>(.ennnnn0.q>>>-~>>>>i.@2nnnnn)]>>>r......................................",
"........*,>>>>1.1>>>>>s*>>>>03>>>>>>>>>>>n.k>>>>0t>>>>(.n>>>>>a.(>>>^i>>>>>d.(>>_*.->>>>_n>>>>>>>>>.#>>>>>>>{a>>>>(.d>>>>>n.#>>>a{>>>>d.(>>>>>>>>>>>n......................................",
"........p>>>>>1.1>>>>>s.>>>>]>>>>>>>>>>>>n.k>>>>>>>>>>(.n>>>>>n.(>>>]>>>>>>d.(>_*.u>>>>>,>>>>>>>>>>.#>>>>>>>>>>>>>(.d>>>>>n.#>>>>>>>>>d.(>>>>>>>>>>>>h.....................................",
"........#>>>>>1.1>>>>>8b>>>>>>>>>>>>>>>>>n.k>>>>>>>>>>(.n>>>>>n.(>>>>>>>>>>d.(_*.o>>>>>>>>>>>>>>>>>.#>>>>>>>>>>>>>(.d>>>>>n.#>>>>>>>>>d.(>>>>>>>>>>>>s.....................................",
"........#>>>>>1.mnnn[4.u>>>>>>>>>>>>,nnnin.k>>>>>>>>>>(.n>>>>>n.(>>>>>>>>>>d.@*.o>>>>>>>>>>>>>>>>>>.#>>>>>>>>>>>>>(.d>>>>>n.#>>>>>>>>>d.(>>>>>>>>>>>>s.....................................",
"........#>>>>>1......h)>>>>>>>>>>>_s.....*.k>>>>>>>>>>(.n>>>>>n.(>>>>>>>>>>d....e>>>>>>>>>>>>>>>>>>.#>>>>>>>>>>>>>(.d>>>>>n.#>>>>>>>>>d.(>>><ssssj>>>s.....................................",
"........#>>>>>1.l(((:+*e>>>>>>>>>>*&v####b.k>>>>>>>>>>(.n>>>>>n.(>>>>>>>>>>d.+|*%'>>>>>>>>>>>>>>>>>.#>>>>>>>>>>>>>(.d>>>>>n.#>>>>>>>>>d.(>>>#....n>>>s.....................................",
"........#>>>>>1.1>>>>,ww]>>>>>>>>n./>>>>>n.k>>>>>>>>>>(.n>>>>>n.(>>>>>>>>>>d.(>)%*x>>>>>>>>>>>>>>>>.#>>>>>>>>>>>>>(.d>>>>>n.#>>>>>>>>>d.(>>>>>>(.n>>>s.....................................",
"........#>>>>>1.1>>>>>#.n>>>>>>>>n.(>>>>>n.k>>>>>>>>>>(.n>>>>>n.(>>>>>>>>>>d.(>>e.8[>>>>>>>>>>>>>>>.#>>>>>>>>>>>>>(.d>>>>>n.#>>>>>>>>>d.(>>>>>>(.n>>>s.....................................",
"........#>>>>>1.1>>>>>#.n>>>>>>>>n./>>>>>n.k>>>>>>>>>>(.n>>>>>n.(>>>>>>>>>>d.(>>>f.$t>>>>>>>>>>>>>>.#>>>>>>>>>>>>>(.d>>>>>n.#>>>>>>>>>x.q>>>>>>y.n>>>s.....................................",
"........#>>>>>1.1>>>>>#.n>>>>>>>>,.+-kkkk:.k>>>>>>>>>>(.n>>>>>n.(>>>>>>>>>>d.(>>>]/.l3>>>>>>>>>kkkk.skkk1>>>>>>>>>(.d>>>>>n.#>>>>>>>>>3.hfkkkk-*&>>>>s.....................................",
"........#>>>>>1.1>>>>>#.n>>>>>>>>>o........k>>>>>>>>>>(.n>>>>>n.(>>>>>>>>>>d.(>>>>3v%'>>>>>>>>>.........#>>>>>>>>>(.d>>>>>n.#>>>>>>>>>>o........o>>>>s.....................................",
"........#>>>>>idi>>>>>;d,>>>>>>>>>>nddddda2n>>>>>>>>>>ad,>>>>>,da>>>>>>>>>>zda>>>>>i'>>>>>>>>>>ddddddddd;>>>>>>>>>adz>>>>>,d;>>>>>>>>>>>nddddddj>>>>>s.....................................",
"........#>>>>>>>>>>>>>>>>>>>>>>>>>>>>>>>>>>>>>>>>>>>>>>>>>>>>>>>>>>>>>>>>>>>>>>>>>>>>>>>>>>>>>>>>>>>>>>>>>>>>>>>>>>>>>>>>>>>>>>>>>>>>>>>>>>>>>>>>>>>>s.....................................",
"........@>>>>>>>>>>>>>>>>>>>3>>>>>>>>>>>>>>>>>>>3>>>>>>>>>>>>>>>>>>>3>>>>>>>>>>>>>>>>>>>z>>>>>>>>>>>>>>>>>>>,]>>>>>>>>>>>>>>>>>>],>>>>>>>>>>>>>>>>>>>*.....................................",
"........%t>>>>>>>>>>>>>>>>>>oj>>>>>>>>>>>>>>>>>>|[>>>>>>>>>>>>>>>>>>72>>>>>>>>>>>>>>>>>>6{>>>>>>>>>>>>>>>>>>)_>>>>>>>>>>>>>>>>>>_^>>>>>>>>>>>>>>>>>>x......................................",
".........k>>>>>>>>>>>>>>>>>]br>>>>>>>>>>>>>>>>>]=~>>>>>>>>>>>>>>>>>]@(>>>>>>>>>>>>>>>>>>l:>>>>>>>>>>>>>>>>>>A!>>>>>>>>>>>>>>>>>>!y>>>>>>>>>>>>>>>>>><......................................",
".........%_>>>>>>>>>>>>>>>>5.%d>>>>>>>>>>>>>>>>r.%)>>>>>>>>>>>>>>>>k..0>>>>>>>>>>>>>>>>c..g>>>>>>>>>>>>>>>>m..1>>>>>>>>>>>>>>>>|..m>>>>>>>>>>>>>>>>7.......................................",
"..........*g>>>>>>>>>>>>>z}...*1>>>>>>>>>>>>>3}...&|>>>>>>>>>>>>>,-...%9>>>>>>>>>>>>>,r...%o]>>>>>>>>>>>>]4...%c]>>>>>>>>>>>>]u%...4]>>>>>>>>>>>>]m%.......................................",
"............p|23>>>>>>i_r8......@e23>>>>>>t_48......@o;3>>>>>>txk8......=o;3>>>>>>txu8......bm;z>>>>>>z{us......bc;z>>>>>>z{ub......bu{z>>>>>>z;mb.........................................",
"...........................................................................................................................................................................................",
"...........................................................................................................................................................................................",
"...........................................................................................................................................................................................",
"...........................................................................................................................................................................................",
"...........................................................................................................................................................................................",
"...........................................................................................................................................................................................",
"...........................................................................................................................................................................................",
"...........................................................................................................................................................................................",
"...........................................................................................................................................................................................",
"...........................................................................................................................................................................................",
"...........................................................................................................................................................................................",
"...........................................................................................................................................................................................",
"..........................................................................................................................................................................................."};
