/* XPM */
static xpm_row_t const game_over_main_menu_bright_xpm[] = {
"187 45 64 1",
" 	c None",
".	c #B950FF",
"+	c #BD5BFF",
"@	c #C671FF",
"#	c #CB7CFF",
"$	c #C46CFF",
"%	c #BA53FF",
"&	c #BB56FF",
"*	c #BD59FF",
"=	c #C56EFF",
"-	c #D79CFF",
";	c #F2DEFF",
">	c #FFFFFF",
",	c #FDFAFF",
"'	c #EACBFF",
")	c #EBCEFF",
"!	c #CE84FF",
"~	c #D79AFF",
"{	c #F1DBFF",
"]	c #FEFCFF",
"^	c #EDD0FF",
"/	c #CF86FF",
"(	c #D391FF",
"_	c #EFD6FF",
":	c #EDD3FF",
"<	c #D28FFF",
"[	c #F5E6FF",
"}	c #DEADFF",
"|	c #FAF1FF",
"1	c #D597FF",
"2	c #E7C3FF",
"3	c #E5BDFF",
"4	c #F3E1FF",
"5	c #E6C0FF",
"6	c #D99FFF",
"7	c #DBA5FF",
"8	c #C061FF",
"9	c #E8C5FF",
"0	c #E2B5FF",
"a	c #F0D9FF",
"b	c #E2B8FF",
"c	c #DAA2FF",
"d	c #D594FF",
"e	c #F4E4FF",
"f	c #E9C8FF",
"g	c #BF5EFF",
"h	c #F8EFFF",
"i	c #CC7EFF",
"j	c #F7ECFF",
"k	c #E4BAFF",
"l	c #F6E9FF",
"m	c #CC81FF",
"n	c #DCA7FF",
"o	c #C266FF",
"p	c #E0B2FF",
"q	c #C877FF",
"r	c #FCF7FF",
"s	c #FBF4FF",
"t	c #C163FF",
"u	c #C369FF",
"v	c #CA79FF",
"w	c #D089FF",
"x	c #DFB0FF",
"y	c #DDAAFF",
"...........................................................................................................................................................................................",
"...........................................................................................................................................................................................",
"...........................................................................................................................................................................................",
"...........................................................................................................................................................................................",
"...........................................................................................................................................................................................",
"...........................................................................................................................................................................................",
"...........................................................................................................................................................................................",
"...........................................................................................................................................................................................",
"...........................................................................................................................................................................................",
".............+@######$%..........+@######$&..........+@######$&..........+@######$&...............*=######=*..........*=######=*..........*=######=*..........&=######=*...................",
"..........&-;>>>>>>>>>,'#.....&-;>>>>>>>>>,)!.....%~{>>>>>>>>>]^/.....%({>>>>>>>>>]^/..........%(_>>>>>>>>>]:/.....%(_>>>>>>>>>]_<......<_]>>>>>>>>>_(%...../:]>>>>>>>>>_(%................",
".........$[>]}(((}|~((12>3%..$4>>>>56(((7)>>>5%..8;>>|(((((((((}>9*..8{>>;0-(((((~)>>'*.......8a>>b(((c,6((db>)*..8:>>>e((((((((>>^*..*^>>[b6(((((12>>:8..*)>>f(e>>>>>>}(>a8...............",
"........gh>><.....i.....2>3.gj>>>>c.......k>>>5.+e>>>l.........#>>f.*e>>>(........%)>>)......&4>>7.....m.....}>^%%{>>>>:........>>>_%%:>>>n.........3>>{&%^>>>n.:>>>>>>#.>>4&..............",
"........3>>>o.4llm.kllb.n>>#b>>>>>og'[lek./>>>>!p>>>>]lll_.qlllh>>>/n>>>>(.flllllb.~>>>(.....n>>>#.)lld.nll'.(>>(->>>>>:.-llllll>>>>-~>>>>n.0lllllf./>>>-(>>>>n.:>>>>>>#.>>>n..............",
".......*,>>>o.>>>(.:>>:.n>>9r>>>>>.=>>>>s.q>>>>9|>>>>>>>>l.#>>>>>>>^h>>>>(.l>>>>>l.(>>>_.....j>>>#.l>>n.3>>l.(>>{e>>>>>:.n>>>>>>>>>>;{>>>>n.:>>>>>].#>>>[_>>>>n.:>>>>>>#.>>>j..............",
".......q>>>>o.>>>(.:>>:.n>>]>>>>>j.i>>>>>*t>>>>>>>>>>>>>>l.#>>>>>>>]>>>>>(.l>>>>>l.(>>>,....8>>>>#.l>>n.3>>l.(>>]>>>>>>:.n>>>>>>>>>>>>>>>>n.:>>>>>>.#>>>>,>>>>n.:>>>>>>#.>>>>8.............",
".......#>>>>o.>>>(.:>>:.n>>>>>>>>a.(>>>>>=.>>>>>>>>>>>>>>l.#>>>>>>>>>>>>>(.l>>>>>l.(>>>>....o>>>>#.l>>n.3>>l.(>>>>>>>>>:.n>>>>>>>>>>>>>>>>n.:>>>>>>.#>>>>>>>>>n.:>>>>>>#.>>>>o.............",
".......#>>>>o.>>>(.:>>:.n>>>>>>>>9.7>>>>>m.l>>>>>>>>>>>>>l.#>>>>>>>>>>>>>(.l>>>>>l.(>>>>....o>>>>#.l>>n.3>>l.(>>>>>>>>>:.#nnnnns>>>>>>>>>>n.:>>>>>>.#>>>>>>>>>n.:>>>>>>#.>>>>o.............",
".......#>>>>o.>>>(.:>>:.n>>>>>>>>p.innnnn@.a>>>>>>>>>>>>>l.#>>>>>>>>>>>>>(.l>>>>>l.(>>>>....o>>>>#.l>>n.3>>l.(>>>>>>>>>:.......l>>>>>>>>>>n.:>>>>>>.#>>>>>>>>>n.:>>>>>>#.>>>>o.............",
".......#>>>>o.>>>(.:>>:.n>>>>>>>>c.........9>>>>>>>>>>>>>l.#>>>>>>>>>>>>>(.l>>>>>l.(>>>>....o>>>>#.l>>n.3>>l.(>>>>>>>>>:.(:::::,>>>>>>>>>>n.:>>>>>>.#>>>>>>>>>n.:>>>>>>#.>>>>o.............",
".......#>>>>o.>>>_3h>>:.n>>>>>>>><.2llllln.p>>>>>>>>>>>>>l.#>>>>>>>>>>>>>(.l>>>>>l.(>>>>....o>>>>#.l>>;3[>>l.(>>>>>>>>>:.n>>>>>>>>>>>>>>>>n.:>>>>>>.#>>>>>>>>>n.:>>>>>>#.>>>>o.............",
".......#>>>>o.>>>>>>>>:.n>>>>>>>>#.l>>>>>9.c>>>>>>>>>>>>>l.#>>>>>>>>>>>>>(.l>>>>>l.(>>>>....o>>>>#.l>>>>>>>l.(>>>>>>>>>:.n>>>>>>>>>>>>>>>>n.:>>>>>>.#>>>>>>>>>n.:>>>>>>#.>>>>o.............",
".......#>>>>o.>>>>>>>>:.n>>>>>>>>o.r>>>>>:.<>>>>>>>>>>>>>l.#>>>>>>>>>>>>>(.l>>>>>l.(>>>>....o>>>>#.l>>>>>>>l.(>>>>>>>>>:.n>>>>>>>>>>>>>>>>n.:>>>>>>.#>>>>>>>>>n.)>>>>>>q.>>>>o.............",
".......#>>>>o.>>>>>>>>:.n>>>>>>>>%.>>>>>>l.#>>>>>>>>>snnn-.onnn3>>>>>>>>>(.l>>>>>l.(>>>>....o>>>>#.l>>>>>>>l.(>>>>>>>>>:.#nnnnnnl>>>>>>>>>n.:>>>>>>.#>>>>>>>>>b.qnnnnn~%8>>>>o.............",
".......#>>>>o.>>>>>>>>:.n>>>>>>>h.o>>>>>>r.u>>>>>>>>>l.........#>>>>>>>>>(.l>>>>>l.(>>>>....o>>>>#.l>>>>>>>l.(>>>>>>>>>:........:>>>>>>>>>n.:>>>>>>.#>>>>>>>>>rv.......%9>>>>o.............",
".......#>>>>a:>>>>>>>>s:l>>>>>>>,:a>>>>>>>:a>>>>>>>>>,:::::::::;>>>>>>>>>e:,>>>>>,:e>>>>....o>>>>;:,>>>>>>>,:e>>>>>>>>>s::::::::s>>>>>>>>>l:s>>>>>>:;>>>>>>>>>>,;::::::h>>>>>o.............",
".......#>>>>>>>>>>>>>>>>>>>>>>>>>>>>>>>>>>>>>>>>>>>>>>>>>>>>>>>>>>>>>>>>>>>>>>>>>>>>>>>>....o>>>>>>>>>>>>>>>>>>>>>>>>>>>>>>>>>>>>>>>>>>>>>>>>>>>>>>>>>>>>>>>>>>>>>>>>>>>>>>>>o.............",
".......@>>>>>>>>>>>>>>>>>>>r>>>>>>>>>>>>>>>>>>>r>>>>>>>>>>>>>>>>>>>r>>>>>>>>>>>>>>>>>>>s....+>>>>>>>>>>>>>>>>>>>r]>>>>>>>>>>>>>>>>>>],>>>>>>>>>>>>>>>>>>>r>>>>>>>>>>>>>>>>>>>g.............",
".......%|>>>>>>>>>>>>>>>>>>pj>>>>>>>>>>>>>>>>>>k[>>>>>>>>>>>>>>>>>>54>>>>>>>>>>>>>>>>>>f.....;>>>>>>>>>>>>>>>>>>)_>>>>>>>>>>>>>>>>>>:^>>>>>>>>>>>>>>>>>>_f>>>>>>>>>>>>>>>>>>;..............",
"........n>>>>>>>>>>>>>>>>>]uc>>>>>>>>>>>>>>>>>]=~>>>>>>>>>>>>>>>>>]@(>>>>>>>>>>>>>>>>>>v.....<>>>>>>>>>>>>>>>>>>#/>>>>>>>>>>>>>>>>>>!!>>>>>>>>>>>>>>>>>>w#>>>>>>>>>>>>>>>>>><..............",
"........%_>>>>>>>>>>>>>>>>1.%:>>>>>>>>>>>>>>>>c.%)>>>>>>>>>>>>>>>>n..9>>>>>>>>>>>>>>>>}.......2>>>>>>>>>>>>>>>>x..5>>>>>>>>>>>>>>>>k..b>>>>>>>>>>>>>>>>5..x>>>>>>>>>>>>>>>>2...............",
".........*2>>>>>>>>>>>>>sd...*3>>>>>>>>>>>>>rd...&k>>>>>>>>>>>>>,-...%0>>>>>>>>>>>>>,c........%p]>>>>>>>>>>>>]7...%}]>>>>>>>>>>>>]n%..%n]>>>>>>>>>>>>]}%...7,>>>>>>>>>>>>]p%...............",
"...........qk4r>>>>>>h_c8......@b4r>>>>>>|_78......@p;r>>>>>>|an8......=p;r>>>>>>|ay8...........ux;s>>>>>>|{yo......u};s>>>>>>s{yu......uy{s>>>>>>s;xu......oy{|>>>>>>s;x$.................",
"...........................................................................................................................................................................................",
"...........................................................................................................................................................................................",
"...........................................................................................................................................................................................",
"...........................................................................................................................................................................................",
"...........................................................................................................................................................................................",
"...........................................................................................................................................................................................",
"...........................................................................................................................................................................................",
"...........................................................................................................................................................................................",
"...........................................................................................................................................................................................",
"...........................................................................................................................................................................................",
"...........................................................................................................................................................................................",
"..........................................................................................................................................................................................."};
