/* XPM */
static xpm_row_t const game_over_exit_bright_xpm[] = {
"187 45 63 1",
" 	c None",
".	c #DC5050",
"+	c #DE5B5B",
"@	c #E37171",
"#	c #E57C7C",
"$	c #E26C6C",
"%	c #DD5353",
"&	c #DD5656",
"*	c #EB9C9C",
"=	c #F8DEDE",
"-	c #FFFFFF",
";	c #FEFAFA",
">	c #F5CBCB",
",	c #F5CECE",
"'	c #E68484",
")	c #EA9A9A",
"!	c #F8DBDB",
"~	c #FEFCFC",
"{	c #F5D0D0",
"]	c #E78686",
"^	c #E99191",
"/	c #FAE6E6",
"(	c #F7D6D6",
"_	c #EC9F9F",
":	c #F2BDBD",
"<	c #F9E1E1",
"[	c #FBECEC",
"}	c #EDA2A2",
"|	c #FBE9E9",
"1	c #EFB0B0",
"2	c #F3C3C3",
"3	c #F3C0C0",
"4	c #DF6161",
"5	c #FCF1F1",
"6	c #EFADAD",
"7	c #F3C5C5",
"8	c #DD5959",
"9	c #DF5E5E",
"0	c #FCEFEF",
"a	c #E06666",
"b	c #F6D3D3",
"c	c #FAE4E4",
"d	c #F4C8C8",
"e	c #F1B8B8",
"f	c #E57E7E",
"g	c #F7D9D9",
"h	c #F0B2B2",
"i	c #E47777",
"j	c #EDA7A7",
"k	c #FEF7F7",
"l	c #EDA5A5",
"m	c #EA9797",
"n	c #FDF4F4",
"o	c #E16969",
"p	c #E06363",
"q	c #E88F8F",
"r	c #E88989",
"s	c #F1BABA",
"t	c #EEAAAA",
"u	c #E26E6E",
"v	c #E47979",
"w	c #EA9494",
"x	c #F0B5B5",
"...........................................................................................................................................................................................",
"...........................................................................................................................................................................................",
"...........................................................................................................................................................................................",
"...........................................................................................................................................................................................",
"...........................................................................................................................................................................................",
"...........................................................................................................................................................................................",
"...........................................................................................................................................................................................",
"...........................................................................................................................................................................................",
"...........................................................................................................................................................................................",
"...........................................................................................................................................................................................",
".............+@######$%..........+@######$&..........+@######$&..........+@######$&........................................................................................................",
"..........&*=---------;>#.....&*=---------;,'.....%)!---------~{].....%^!---------~{]......................................................................................................",
".........$/---(^^^^^^^_--:%..$<--[}|------12~3%..4=--5^^^^^^^^^6-78..4!---^^^^^^^^^6->8....................................................................................................",
"........90----:.......a---:.9[---3.]-----b.@~-3.+c---|.........#--d.8c----.........#--,....................................................................................................",
"........:-----:.1|||||[----#e-----f.d---;$.g---'h----~|||(.i|||0---]j-----||||.i|||0---^...................................................................................................",
".......8;-----:.:----------7k-----c&a;--l.m----75--------|.#-------{0---------.#-------(...................................................................................................",
".......i------:.:----------~-------j.}-c%4n--------------|.#-------~----------.#-------;...................................................................................................",
".......#------:.:------------------;o%ci.3---------------|.#------------------.#--------...................................................................................................",
".......#------:.]jjjjj--------------{.9.f----------------|.#------------------.#--------...................................................................................................",
".......#------:.......--------------~p..:----------------|.#------------------.#--------...................................................................................................",
".......#------:.}bbbbb--------------1.@.ak---------------|.#------------------.#--------...................................................................................................",
".......#------:.:------------------[8+5q.}---------------|.#------------------.#--------...................................................................................................",
".......#------:.:------------------].:-59%<--------------|.#------------------.#--------...................................................................................................",
".......#------:.:----------------->.#---7.i--------------|.#------------------.#--------...................................................................................................",
".......#------:.]jjjjjjn---------;a&c----r.s---------njjj*.ajjj:--------------.#--------...................................................................................................",
".......#------:........|---------s.t-----[+o~--------|.........#--------------.#--------...................................................................................................",
".......#------0bbbbbbbb;----------<~------c;---------;bbbbbbbbb=--------------b=--------...................................................................................................",
".......#--------------------------------------------------------------------------------...................................................................................................",
".......@-------------------k-------------------k-------------------k-------------------n...................................................................................................",
".......%5------------------h[------------------s/------------------3<------------------d...................................................................................................",
"........j-----------------~o}-----------------~u)-----------------~@^------------------v...................................................................................................",
"........%(----------------m.%b----------------}.%,----------------j..7----------------6....................................................................................................",
".........82-------------nw...8:-------------kw...&s-------------;*...%x-------------;}.....................................................................................................",
"...........is<k------0(}4......@e<k------5(l4......@h=k------5gj4......uh=k------5gt4......................................................................................................",
"...........................................................................................................................................................................................",
"...........................................................................................................................................................................................",
"...........................................................................................................................................................................................",
"...........................................................................................................................................................................................",
"...........................................................................................................................................................................................",
"...........................................................................................................................................................................................",
"...........................................................................................................................................................................................",
"...........................................................................................................................................................................................",
"...........................................................................................................................................................................................",
"...........................................................................................................................................................................................",
"..........................................................................................................................................................................................."};
