/* XPM */
static xpm_row_t const multiplayer_xpm[] = {
"190 33 20 1",
" 	c None",
".	c #31D3E6",
"+	c #4BD8C1",
"@	c #ADEDF5",
"#	c #FFFFFF",
"$	c #BAF0F7",
"%	c #76E2EE",
"&	c #91E8F2",
"*	c #4CD9E9",
"=	c #83E5F0",
"-	c #68DFED",
";	c #9FEAF3",
">	c #5ADCEB",
",	c #E4F9FC",
"'	c #C8F3F8",
")	c #F1FCFD",
"!	c #3FD6E8",
"~	c #D6F6FA",
"{	c #66DC9C",
"]	c #73DF89",
".............................................................................................................................................................................................+",
".............................................................................................................................................................................................+",
".............................................................................................................................................................................................+",
".............................................................................................................................................................................................+",
".............................................................................................................................................................................................+",
".............................................................................................................................................................................................+",
".............................................................................................................................................................................................+",
".............................................................................................................................................................................................+",
".............................................................................................................................................................................................+",
"...................@#####$...%######..&####*...@###..=####-....&##########-=####-.......*#########;-...=####-..........$####%..>####,....-###'-###########=.@#########$%.....................+",
"...................@#####)...;######..&####*...@###..=####-....&##########-=####-.......*###########&..=####-.........!#####$...@####=...@###--###########=.@###########@....................+",
"...................@######>..~######..&####*...@###..=####-....&##########-=####-.......*############-.=####-.........%#####)...!)###,..*###$.-###########=.@############=...................+",
"...................@######&.!#######..&####*...@###..=####-.......=####*...=####-.......*####&..=####$.=####-.........@######-...&####=.@###*.-####&........@####...&####~...................+",
"...................@######$.%#######..&####*...@###..=####-.......=####*...=####-.......*####&...,###,.=####-.........)##,###;....,###,*###@..-####&........@####...!####,...................+",
"...................@##,)##).;##~####..&####*...@###..=####-.......=####*...=####-.......*####&...,###,.=####-........>###=###~....%####,###*..-####&........@####...!####,...................+",
"...................@##,$###>~##;####..&####*...@###..=####-.......=####*...=####-.......*####&..&####$.=####-........;##~!####>....'######&...-##########...@####...@####$...................+",
"...................@##,&###&##)=####..&####*...@###..=####-.......=####*...=####-.......*############-.=####-........~##;.~###&....*#####)!...-##########...@############-...................+",
"...................@##,>###)##$=####..&####*...@###..=####-.......=####*...=####-.......*###########&..=####-.......*###%.;###'.....@####&....-##########...@###########%....................+",
"...................@##,.,#####&=####..&####*...@###..=####-.......=####*...=####-.......*#########@-...=####-.......&###!.%####!....-####-....-####&........@##########%.....................+",
"...................@##,.;#####>=####..&####*...@###..=####-.......=####*...=####-.......*####@.........=####-.......$##########%....-####-....-####&........@####.%####'.....................+",
"...................@##,.%####).=####..&####>...'##)..=####-.......=####*...=####-.......*####@.........=####-......!###########$....-####-....-####&........@####..)####*....................+",
"...................@##,.!####$.=####..%####'..%###'..=####-.......=####*...=####-.......*####@.........=####-......%###########)....-####-....-####&........@####..;####;....................+",
"...................@##,..~###&.=####...,##########=..=##########=.=####*...=####-.......*####@.........=##########=@###!...%####-...-####-....-###########=.@####..>####)....................+",
"...................@##,..;###>.=####...>,########&...=##########=.=####*...=####-.......*####@.........=##########=)##$....!####;...-####-....-###########=.@####...~####=...................+",
"...................@##,..%##)..=####.....&'####;>....=##########=.=####*...=####-.......*####@.........=##########&###&.....~###,...-####-....-###########=.@####...&####'...................+",
".............................................................................................................................................................................................+",
".............................................................................................................................................................................................+",
".............................................................................................................................................................................................+",
".............................................................................................................................................................................................+",
".............................................................................................................................................................................................+",
".............................................................................................................................................................................................+",
".............................................................................................................................................................................................+",
"{{{{{{{{{{{{{{{{{{{{{{{{{{{{{{{{{{{{{{{{{{{{{{{{{{{{{{{{{{{{{{{{{{{{{{{{{{{{{{{{{{{{{{{{{{{{{{{{{{{{{{{{{{{{{{{{{{{{{{{{{{{{{{{{{{{{{{{{{{{{{{{{{{{{{{{{{{{{{{{{{{{{{{{{{{{{{{{{{{{{{{{{{{{{{]"};
