/* XPM */
static xpm_row_t const singleplayer_xpm[] = {
"190 35 20 1",
" 	c #9BE651",
".	c #A0CE5E",
"+	c #A5B66B",
"@	c #B08685",
"#	c #C426B8",
"$	c #DC7DD4",
"%	c #EFC5EC",
"&	c #FFFFFF",
"*	c #E7A8E3",
"=	c #D86ED0",
"-	c #E08BD9",
";	c #F7E2F6",
">	c #E39ADE",
",	c #C834BD",
"'	c #F3D4F1",
")	c #D460CB",
"!	c #D051C6",
"~	c #FBF1FA",
"{	c #CC43C1",
"]	c #EBB7E7",
"                                                                                                                                                                                              ",
".+++++++++++++++++++++++++++++++++++++++++++++++++++++++++++++++++++++++++++++++++++++++++++++++++++++++++++++++++++++++++++++++++++++++++++++++++++++++++++++++++++++++++++++++++++++++++++++",
"@#############################################################################################################################################################################################",
"@#############################################################################################################################################################################################",
"@#############################################################################################################################################################################################",
"@#############################################################################################################################################################################################",
"@#############################################################################################################################################################################################",
"@#############################################################################################################################################################################################",
"@#############################################################################################################################################################################################",
"@#################$%&&&&*=####&&&&-##;&&&>####&&&-####,-;&&&'-#####&&&&-#######&&&&&&&&&&&#######%&&&&&&&&>)###-&&&&##########-&&&&-##$&&&&$####;&&;#&&&&&&&&&&&#)&&&&&&&&&%$#################",
"@###############,'&&&&&&&&%###&&&&-##;&&&&!###&&&-###!~&&&&&&&;{###&&&&-#######&&&&&&&&&&&#######%&&&&&&&&&&$##-&&&&##########%&&&&%###;&&&;###)&&&$#&&&&&&&&&&&#)&&&&&&&&&&&]################",
"@###############]&&&&&&&&&&>##&&&&-##;&&&&'###&&&-##{~&&&&&&&&&;###&&&&-#######&&&&&&&&&&&#######%&&&&&&&&&&&{#-&&&&#########,&&&&&&,##=&&&&$##%&&;##&&&&&&&&&&&#)&&&&&&&&&&&&$###############",
"@##############,&&&&-##-~-)###&&&&-##;&&&&&$##&&&-##]&&&~!#-&&&&$##&&&&-#######&&&&-#############%&&&%##)&&&&>#-&&&&#########$&&&&&&$###%&&&;#)&&&$##&&&&-#######)&&&&)##=&&&&]###############",
"@##############)&&&&-#########&&&&-##;&&&&&~,#&&&-#{&&&&>###~&;-=##&&&&-#######&&&&-#############%&&&%###'&&&%#-&&&&#########]&&%&&&]###)&&&&$]&&;###&&&&-#######)&&&&)###&&&&%###############",
"@##############!&&&&&&*-######&&&&-##;&&~&&&*#&&&-#-&&&&=##########&&&&-#######&&&&-#############%&&&%###'&&&%#-&&&&#########~&&)&&&~####*&&&;&&&$###&&&&-#######)&&&&)##$&&&&]###############",
"@###############;&&&&&&&&*,###&&&&-##;&&*&&&&)~&&-#>&&&&!##########&&&&-#######&&&&&&&&&%########%&&&%##$&&&&>#-&&&&########=&&~#'&&&=###{&&&&&&;####&&&&&&&&&%##)&&&&&&&&&&&&)###############",
"@###############!~&&&&&&&&;{##&&&&-##;&&**&&&';&&-#*&&&&{#;&&&&&%##&&&&-#######&&&&&&&&&%########%&&&&&&&&&&&{#-&&&&########>&&]#>&&&>####*&&&&&$####&&&&&&&&&%##)&&&&&&&&&&&-################",
"@################,-&&&&&&&&%##&&&&-##;&&*{~&&&~&&-#*&&&&{#;&&&&&%##&&&&-#######&&&&&&&&&%########%&&&&&&&&&&$##-&&&&########~&&-#=&&&~####,~&&&;#####&&&&&&&&&%##)&&&&&&&&&&)#################",
"@###################=-~&&&&&,#&&&&-##;&&*#-&&&&&&-#-&&&&)#;&&&&&%##&&&&-#######&&&&-#############%&&&&&&&&*!###-&&&&#######!&&&&&&&&&&!####%&&&*#####&&&&-#######)&&&&)!&&&&]#################",
"@##############--*&$###>&&&&{#&&&&-##;&&*##'&&&&&-#)&&&&-###>&&&%##&&&&-#######&&&&-#############%&&&;#########-&&&&#######-&&&&&&&&&&>####%&&&*#####&&&&-#######)&&&&)#'&&&&,################",
"@##############%&&&~)##>&&&~##&&&&-##;&&*##!&&&&&-##;&&&&)#)~&&&%##&&&&-#######&&&&-#############%&&&;#########-&&&&#######'&&&&&&&&&&'####%&&&*#####&&&&-#######)&&&&)#-&&&&-################",
"@##############!&&&&&&&&&&&-##&&&&-##;&&*###>&&&&-##!&&&&&&&&&&&%##&&&&&&&&&&)#&&&&&&&&&&&#######%&&&;#########-&&&&&&&&&%{&&&$###!&&&&{###%&&&*#####&&&&&&&&&&&#)&&&&)#,&&&&;################",
"@###############=&&&&&&&&&>###&&&&-##;&&*###,;&&&-###=&&&&&&&'&&%##&&&&&&&&&&)#&&&&&&&&&&&#######%&&&;#########-&&&&&&&&&%-&&&,####~&&&-###%&&&*#####&&&&&&&&&&&#)&&&&)##]&&&&)###############",
"@################,-;&&&&-!####&&&&-##;&&*####=&&&-####{-&&&~-#]&%##&&&&&&&&&&)#&&&&&&&&&&&#######%&&&;#########-&&&&&&&&&%%&&'#####]&&&%###%&&&*#####&&&&&&&&&&&#)&&&&)##=&&&&*###############",
"@#############################################################################################################################################################################################",
"@#############################################################################################################################################################################################",
"@#############################################################################################################################################################################################",
"@#############################################################################################################################################################################################",
"@#############################################################################################################################################################################################",
"@#############################################################################################################################################################################################",
"@#############################################################################################################################################################################################",
"@#############################################################################################################################################################################################",
"@#############################################################################################################################################################################################",
"@#############################################################################################################################################################################################",
"@#############################################################################################################################################################################################"};
