/* XPM */
static char * singleplayer_bright_xpm[] = {
"190 33 18 1",
" 	c None",
".	c #E08CD9",
"+	c #DAA5CC",
"@	c #ECBAE8",
"#	c #F7E0F5",
"$	c #FFFFFF",
"%	c #F2D1F0",
"&	c #EAB2E6",
"*	c #EFC2EB",
"=	c #FBF0FA",
"-	c #F0CAEE",
";	c #E294DC",
">	c #F9E8F8",
",	c #E8ABE3",
"'	c #E6A3E1",
")	c #FDF8FC",
"!	c #E49BDE",
"~	c #F4D9F2",
".............................................................................................................................................................................................+",
".............................................................................................................................................................................................+",
".............................................................................................................................................................................................+",
".............................................................................................................................................................................................+",
".............................................................................................................................................................................................+",
".............................................................................................................................................................................................+",
".............................................................................................................................................................................................+",
".................@#$$$$%&....$$$$*..=$$$-....$$$*....;*=$$$>*.....$$$$*.......$$$$$$$$$$$.......#$$$$$$$$-,...*$$$$..........*$$$$*..@$$$$@....=$$=.$$$$$$$$$$$.,$$$$$$$$$#@.................+",
"...............;>$$$$$$$$#...$$$$*..=$$$$'...$$$*...')$$$$$$$=!...$$$$*.......$$$$$$$$$$$.......#$$$$$$$$$$@..*$$$$..........#$$$$#...=$$$=...,$$$@.$$$$$$$$$$$.,$$$$$$$$$$$~................+",
"...............~$$$$$$$$$$-..$$$$*..=$$$$>...$$$*..!)$$$$$$$$$=...$$$$*.......$$$$$$$$$$$.......#$$$$$$$$$$$!.*$$$$.........;$$$$$$;..&$$$$@..#$$=..$$$$$$$$$$$.,$$$$$$$$$$$$@...............+",
"..............;$$$$*..*)*,...$$$$*..=$$$$$@..$$$*..~$$$)'.*$$$$@..$$$$*.......$$$$*.............#$$$#..,$$$$-.*$$$$.........@$$$$$$@...#$$$=.,$$$@..$$$$*.......,$$$$,..&$$$$~...............+",
"..............,$$$$*.........$$$$*..=$$$$$);.$$$*.!$$$$-...)$=*&..$$$$*.......$$$$*.............#$$$#...>$$$#.*$$$$.........~$$#$$$~...,$$$$@~$$=...$$$$*.......,$$$$,...$$$$#...............+",
"..............'$$$$$$%*......$$$$*..=$$)$$$%.$$$*.*$$$$&..........$$$$*.......$$$$*.............#$$$#...>$$$#.*$$$$.........)$$,$$$)....%$$$=$$$@...$$$$*.......,$$$$,..@$$$$~...............+",
"...............=$$$$$$$$%;...$$$$*..=$$%$$$$,)$$*.-$$$$'..........$$$$*.......$$$$$$$$$#........#$$$#..@$$$$-.*$$$$........&$$).>$$$&...!$$$$$$=....$$$$$$$$$#..,$$$$$$$$$$$$,...............+",
"...............')$$$$$$$$=!..$$$$*..=$$%%$$$>=$$*.%$$$$!.=$$$$$#..$$$$*.......$$$$$$$$$#........#$$$$$$$$$$$!.*$$$$........-$$~.-$$$-....%$$$$$@....$$$$$$$$$#..,$$$$$$$$$$$*................+",
"................;*$$$$$$$$#..$$$$*..=$$%!)$$$)$$*.%$$$$!.=$$$$$#..$$$$*.......$$$$$$$$$#........#$$$$$$$$$$@..*$$$$........)$$*.&$$$)....;)$$$=.....$$$$$$$$$#..,$$$$$$$$$$,.................+",
"...................&*)$$$$$;.$$$$*..=$$%.*$$$$$$*.*$$$$,.=$$$$$#..$$$$*.......$$$$*.............#$$$$$$$$%'...*$$$$.......'$$$$$$$$$$'....#$$$%.....$$$$*.......,$$$$,'$$$$~.................+",
"..............**%$@...-$$$$!.$$$$*..=$$%..>$$$$$*.,$$$$*...-$$$#..$$$$*.......$$$$*.............#$$$=.........*$$$$.......*$$$$$$$$$$-....#$$$%.....$$$$*.......,$$$$,.>$$$$;................+",
"..............#$$$),..-$$$)..$$$$*..=$$%..'$$$$$*..=$$$$,.,)$$$#..$$$$*.......$$$$*.............#$$$=.........*$$$$.......>$$$$$$$$$$>....#$$$%.....$$$$*.......,$$$$,.*$$$$*................+",
"..............'$$$$$$$$$$$*..$$$$*..=$$%...-$$$$*..'$$$$$$$$$$$#..$$$$$$$$$$,.$$$$$$$$$$$.......#$$$=.........*$$$$$$$$$#!$$$@...'$$$$!...#$$$%.....$$$$$$$$$$$.,$$$$,.;$$$$=................+",
"...............&$$$$$$$$$-...$$$$*..=$$%...;=$$$*...&$$$$$$$>$$#..$$$$$$$$$$,.$$$$$$$$$$$.......#$$$=.........*$$$$$$$$$#*$$$;....)$$$*...#$$$%.....$$$$$$$$$$$.,$$$$,..~$$$$,...............+",
"................;*=$$$$*'....$$$$*..=$$%....&$$$*....!*$$$)*.~$#..$$$$$$$$$$,.$$$$$$$$$$$.......#$$$=.........*$$$$$$$$$##$$>.....~$$$#...#$$$%.....$$$$$$$$$$$.,$$$$,..&$$$$%...............+",
".............................................................................................................................................................................................+",
".............................................................................................................................................................................................+",
".............................................................................................................................................................................................+",
".............................................................................................................................................................................................+",
".............................................................................................................................................................................................+",
".............................................................................................................................................................................................+",
".............................................................................................................................................................................................+",
".............................................................................................................................................................................................+",
".............................................................................................................................................................................................+",
".............................................................................................................................................................................................+",
".............................................................................................................................................................................................+"};
