/* XPM */
static xpm_row_t const exit_bright_xpm[] = {
"190 33 18 1",
" 	c None",
".	c #E7A795",
"+	c #E0B998",
"@	c #F2D0C6",
"#	c #FFFFFF",
"$	c #F0CABF",
"%	c #FCF3F1",
"&	c #F5DCD5",
"*	c #EAB2A3",
"=	c #EDBEB1",
"-	c #E8AC9C",
";	c #FDF9F8",
">	c #F9E7E3",
",	c #FAEEEA",
"'	c #EBB8AA",
")	c #F4D6CE",
"!	c #F7E1DC",
"~	c #EFC4B9",
".............................................................................................................................................................................................+",
".............................................................................................................................................................................................+",
".............................................................................................................................................................................................+",
".............................................................................................................................................................................................+",
".............................................................................................................................................................................................+",
".............................................................................................................................................................................................+",
".............................................................................................................................................................................................+",
".............................................................................................................................................................................................+",
"........................................................................@###########$####%....$###&.*####@=##########@.......................................................................+",
"........................................................................@###########*&####@..-;##;-.*####@=##########@.......................................................................+",
"........................................................................@###########*-;###;-.&###$..*####@=##########@.......................................................................+",
"........................................................................@####=........$####&=###>...*####@...*####$..........................................................................+",
"........................................................................@####=.........>####,###'...*####@...*####$..........................................................................+",
"........................................................................@####=.........*#######)....*####@...*####$..........................................................................+",
"........................................................................@#########>.....@#####%-....*####@...*####$..........................................................................+",
"........................................................................@#########>......%####@.....*####@...*####$..........................................................................+",
"........................................................................@#########>.....'#####%-....*####@...*####$..........................................................................+",
"........................................................................@####=..........>######)....*####@...*####$..........................................................................+",
"........................................................................@####=.........$########'...*####@...*####$..........................................................................+",
"........................................................................@####=........-;##;'####,...*####@...*####$..........................................................................+",
"........................................................................@####=........&###$.)####@..*####@...*####$..........................................................................+",
"........................................................................@###########*=###,..-;###;*.*####@...*####$..........................................................................+",
"........................................................................@###########*,###=...$####!.*####@...*####$..........................................................................+",
"........................................................................@###########@###&.....,####~*####@...*####$..........................................................................+",
".............................................................................................................................................................................................+",
".............................................................................................................................................................................................+",
".............................................................................................................................................................................................+",
".............................................................................................................................................................................................+",
".............................................................................................................................................................................................+",
".............................................................................................................................................................................................+",
".............................................................................................................................................................................................+",
".............................................................................................................................................................................................+",
".............................................................................................................................................................................................+"};
